<?xml version="1.0" encoding="UTF-8"?>
<svg id="Layer_2" data-name="Layer 2" xmlns="http://www.w3.org/2000/svg" viewBox="0 0 1195.44 935.31">
  <defs>
    <style>
      .cls-1 {
        fill: #f8b03a;
      }

      .cls-1, .cls-2, .cls-3, .cls-4, .cls-5, .cls-6, .cls-7, .cls-8 {
        stroke-width: 0px;
      }

      .cls-2 {
        fill: #87a351;
      }

      .cls-3 {
        fill: #429dd6;
      }

      .cls-4 {
        fill: #114c78;
      }

      .cls-5 {
        fill: #2f789f;
      }

      .cls-6 {
        fill: #7eae58;
      }

      .cls-7 {
        fill: #fff;
      }

      .cls-8 {
        fill: #f68712;
      }
    </style>
  </defs>
  <path class="cls-5" d="m635.44,533.09c7.01,5.47,13.36,28.69,27.8,69.42,11.27,31.79,28.96,78.37,36.19,97.29,7.37-24.8,47.69-85.14,64.01-111.09,17.08-27.16,39.42-77.09,53.87-109.06,14.45-31.97,32.41-70.52,43.8-115.19,11.39-44.68,13.14-82.22,13.14-82.22,0,0,4.82-43.92-24.53-45.68-29.35-1.75-28.91,16.21-43.8,71.83s-30.22,68.27-30.22,68.27c-52.12,70.02-96.8,96.42-102.05,98.61-5.26,2.19-17.96,3.94-5.69-7.88,12.26-11.83,14.89-4.82,53.87-40.3s47.3-56.5,49.49-67.89c2.19-11.39-11.39-19.27-17.52-19.71s-8.76,19.71-22.34,37.17c-13.58,17.46-55.62,73.2-88.47,84.59-32.85,11.39-53,10.51-82.34,3.07-29.35-7.45-42.49-12.26-63.07-28.47-20.59-16.21-30.22-23.65-51.68-63.07-21.46-39.42-17.52-76.65,9.2-125.27,26.72-48.62,56.06-63.07,69.2-69.64,13.14-6.57,60.01-25.84,114.32,2.19l53.93,43.28s-7.31-41.53-26.29-61.97c-11.47-12.35-19.17-17.46-25.61-20.94-13.59-5.95-46.03-7.01-52.93-6.8-19.56.58-47.3,1.17-90.81,28.03-29.51,18.22-49.81,47.87-58.22,59.74.15-.81.32-1.63.5-2.44-2.53,7.74-7.7,19.02-11.96,27.67-5.11,10.37-9.64,18.54-20.15,47.3-10.51,28.76-7.45,44.09-3.65,58.11,3.8,14.02,16.79,42.05,24.38,54.31s38.69,51.39,48.18,60.15c9.49,8.76,35.08,27.05,38.58,30.11,3.5,3.07,15.11,11.28,26.28,17.41,11.17,6.13,37.12,15.99,40.95,17.74,3.83,1.75,5.91,2.63,7.56,2.52s6.35,1.86,9.85,2.96c3.5,1.09,5.69.33,7.23-.45,1.53-.78,2.74-.1,4.71,0,1.97.1,1.97-.97,1.42-2.29s-5.04-2.96-7.56-3.28c-2.52-.33-7.23-.99-8.87-1.2s-2.74-.55-8.1-2.85c-5.37-2.3-3.18-4.6-.88-6.57,2.3-1.97,7.45-2.41,12.04-2.85s2.41-1.53.22-3.07c-2.19-1.53-15.77-11.39-19.6-14.56-3.83-3.18-6.35-3.72-12.04-5.69-5.69-1.97-13.58-4.27-17.85-5.26-4.27-.99-16.1-5.37-19.38-7.45-3.28-2.08-7.34-3.83-16.21-7.66-8.87-3.83-9.42-7.01-6.68-10.18,2.74-3.18,12.59,2.74,17.74,5.47,17.85,7.99,36.57,11.72,45.55,14.89,8.98,3.18,12.48,6.35,17.52,10.84,5.04,4.49,11.61,7.77,17.74,10.4,6.13,2.63,18.4,5.69,26.28,13.58,7.88,7.88,5.26,10.95,2.63,14.02m-116.28-38.84c.44-4.38,3.5-6.28,5.84-6.13,2.34.15,8.47,2.19,12.12,4.38,3.65,2.19,8.91,3.8,11.68,4.53,2.77.73,9.24,4.06,11.83,4.67,0,0,5.55,1.61,10.22,1.31s10.51.88,11.53,5.69c1.02,4.82-3.65,8.03-6.13,7.88-2.48-.15-14.89-1.61-22.19-5.4-7.3-3.8-17.96-6.72-21.61-8.32-3.65-1.61-13.72-4.23-13.29-8.61Z"/>
  <path class="cls-3" d="m710.43,293.95c-2.34-28.91-16.64-48.47-25.99-59.57-9.34-11.1-31.24-29.78-56.94-38.54-25.7-8.76-34.46-8.18-43.51-7.88-9.05.29-25.11,4.38-39.13,10.8-14.02,6.42-29.2,16.96-34.75,23.52-5.55,6.56-4.09,8.6-2.92,11.52,1.17,2.92-6.09,19.15-6.09,19.15h0c-1,1.28-1.94,2.6-2.82,3.99-12.88,20.39-17.08,53.87-12.48,72.93,4.6,19.05,9.85,44.68,42.7,69.64,32.85,24.97,60.44,14.45,86.07,5.26,25.62-9.2,44.02-48.21,48.62-81.27,4.6-33.05-1.82-74.81-38.62-93.2,0,0-21.9-11.39-55.48-7.02,0,0-19.48,1.12-38.99,9.14-3.27-.62-6.52-2.13-7.73-5.62-2.63-7.59,11.1-9.64,23.07-12.56,11.97-2.92,36.21-8.47,60.73-4.67,24.53,3.8,47.3,16.06,63.95,42.92,16.64,26.86,16.35,48.47,15.77,58.98s-4.38,23.07-11.68,40.59c-7.3,17.52-14.6,21.61-11.68,23.94s23.65-.88,33-18.1c9.34-17.23,17.23-35.04,14.89-63.95Z"/>
  <path class="cls-2" d="m768.43,580.99c16.32-28.14,36.05-72.19,49.22-101.33,6.82-15.09,14.42-31.66,21.74-49.64l-7.73-44.53-22.36-88.73c-.95,3.68-1.95,7.56-3.05,11.64-14.89,55.63-30.22,68.27-30.22,68.27-10.05,13.5-19.82,25.37-29.08,35.77h0s10.25,44.88,16.38,79.04c6.12,34.12,5.09,89.37,5.09,89.51Z"/>
  <path class="cls-1" d="m874.59,282.3s4.82-43.92-24.53-45.68c-28.82-1.72-28.91,15.58-43.02,68.91.94,16.4,2.89,39.86,6.67,50.66,4.12,11.78,15.38,52.09,22.71,81.09,9.25-22.05,18.3-46.33,25.03-72.76,11.39-44.68,13.14-82.22,13.14-82.22Z"/>
  <path id="Green_Hair" data-name="Green Hair" class="cls-6" d="m628.87,134.13c9.75,6.21,18.4,6.82,37.38,27.26,18.98,20.44,26.29,61.97,26.29,61.97,9.04,12.07,11.67,20.67,11.67,20.67.56,1.56,2.04,1.31,2.34-1.46s-1.31-11.68-1.61-14.16.15-3.94,1.75-3.07c1.61.88,9.05,6.42,14.02,10.07,4.96,3.65,15.48,13.72,15.18,10.8-3.8-23.21-25.11-62.49-32.85-73.14-7.74-10.66-31.24-40.3-68.47-48.47-11.9-2.61-23.21-4.31-33.86-5.34,8.34,4.63,20.57,10.04,28.16,14.88Z"/>
  <path class="cls-3" d="m582.19,0C324.46,0,115.53,208.93,115.53,466.65s208.93,466.65,466.65,466.65,466.65-208.93,466.65-466.65S839.91,0,582.19,0Zm-87.47,776.66s-59.37-39.42-73.82-56.5c-14.45-17.08-49.93-51.25-69.64-90.66s-42.7-74.9-53.22-80.81c0,0-28.91,47.3,22.99,170.82,0,0-48.62-39.42-70.3-137.31-21.68-97.89-10.51-176.07,0-250.97,0,0-33.51,12.48-48.62,101.83-15.11,89.35-5.91,157.02-5.91,157.02,0,0-16.42-78.18-9.2-157.02s22.34-117.6,38.11-152.42c0,0-42.05-5.91-55.19,42.05,0,0-4.08-4.48-9.99-4.46C221.17,144.05,387.1,19.2,582.19,19.2s361.04,124.87,422.25,299.04c-6.26-.38-10.64,4.44-10.64,4.44-13.14-47.96-55.19-42.05-55.19-42.05,15.77,34.82,30.88,73.58,38.11,152.42s-9.2,157.02-9.2,157.02c0,0,9.2-67.67-5.91-157.02s-48.62-101.83-48.62-101.83c10.51,74.9,21.68,153.08,0,250.97-21.68,97.89-70.3,137.31-70.3,137.31,51.9-123.51,22.99-170.82,22.99-170.82-10.51,5.91-33.51,41.39-53.22,80.81s-55.19,73.58-69.64,90.66c-14.45,17.08-73.82,56.5-73.82,56.5-91.64,23.76-174.28,0-174.28,0Z"/>
  <path class="cls-4" d="m669,776.66s12.45-8.26,27.33-18.86c-1.54-25.35-.17-40.51,2.62-54.76.17-.85.39-1.76.67-2.72-7.11-18.6-25.01-65.73-36.38-97.8-14.44-40.73-20.79-63.95-27.8-69.42-2.63,3.07-10.95,10.07-19.27,16.21-8.32,6.13-27.59,11.83-43.18,5.69s-30.84-20.59-43.55-28.47c-12.7-7.88-35.04-19.27-67.89-39.86-32.85-20.59-60-47.3-67.89-59.13-42.92-62.19-56.5-106.87-60.88-113-4.38-6.13-11.83-19.71-35.04-14.89-23.21,4.82-15.77,39.86-11.39,62.63,4.38,22.78,23.65,64.38,46.87,100.74,23.21,36.35,81.47,105.12,99.2,120.45,17.73,15.33,40.52,41.61,51.03,66.57,21.11,53.92,26.71,99.29,27.26,130.29,28.37,5.58,90.9,13.8,158.28-3.67Z"/>
  <path class="cls-4" d="m628.87,134.13c-7.59-4.84-19.82-10.24-28.15-14.88-22.68-2.2-42.33-1.36-58.13.23-23.21,2.34-46.72,15.33-57.38,23.51-10.66,8.18-22.12,23.84-27.7,31.86-5.98,8.59-15.32,28.02-18.84,46.57,8.41-11.87,28.71-41.52,58.22-59.74,43.51-26.86,71.25-27.45,90.81-28.03,6.9-.21,39.34.86,52.93,6.8-4.22-2.28-7.91-3.86-11.76-6.32Z"/>
  <rect class="cls-7" x="44.86" y="763.82" width="1092.97" height="151.59"/>
  <g>
    <path class="cls-8" d="m497.56,799.02c-3.57-2.54-8.04-3.82-13.41-3.82h-5.13v57.97h5.13c5.37,0,9.82-1.26,13.34-3.78,3.52-2.52,6.17-5.97,7.95-10.35,1.78-4.38,2.67-9.31,2.67-14.79s-.87-10.48-2.6-14.86c-1.74-4.38-4.39-7.84-7.95-10.38Z"/>
    <path class="cls-8" d="m652.12,830.72c-1.84-1.17-4.02-1.76-6.54-1.76s-4.71.59-6.57,1.76-3.32,2.79-4.36,4.84c-1.04,2.05-1.56,4.4-1.56,7.04s.52,4.92,1.56,6.97c1.04,2.06,2.49,3.65,4.36,4.77,1.86,1.13,4.05,1.69,6.57,1.69s4.7-.56,6.54-1.69c1.84-1.12,3.27-2.71,4.29-4.77,1.02-2.05,1.52-4.38,1.52-6.97s-.51-4.99-1.52-7.04c-1.02-2.06-2.45-3.67-4.29-4.84Z"/>
    <path class="cls-8" d="m969.19,830.72c-1.84-1.17-4.02-1.76-6.54-1.76s-4.71.59-6.57,1.76c-1.86,1.17-3.32,2.79-4.36,4.84-1.04,2.05-1.56,4.4-1.56,7.04s.52,4.92,1.56,6.97c1.04,2.06,2.49,3.65,4.36,4.77,1.86,1.13,4.05,1.69,6.57,1.69s4.7-.56,6.54-1.69c1.84-1.12,3.27-2.71,4.29-4.77,1.02-2.05,1.53-4.38,1.53-6.97s-.51-4.99-1.53-7.04c-1.02-2.06-2.45-3.67-4.29-4.84Z"/>
    <path class="cls-8" d="m344.22,799.02c-3.57-2.54-8.04-3.82-13.41-3.82h-5.13v57.97h5.13c5.37,0,9.82-1.26,13.34-3.78,3.52-2.52,6.17-5.97,7.95-10.35,1.78-4.38,2.67-9.31,2.67-14.79s-.87-10.48-2.6-14.86c-1.74-4.38-4.39-7.84-7.95-10.38Z"/>
    <path class="cls-8" d="m1101.38,830.02c-2.03-1.25-4.38-1.87-7.05-1.87s-4.9.62-7.01,1.87-3.79,2.96-5.05,5.14c-1.26,2.18-1.89,4.64-1.89,7.37s.63,5.2,1.89,7.38c1.26,2.18,2.94,3.88,5.05,5.1,2.11,1.22,4.44,1.83,7.01,1.83s5.01-.61,7.05-1.83c2.03-1.22,3.64-2.92,4.83-5.1,1.19-2.18,1.78-4.63,1.78-7.38s-.59-5.2-1.78-7.37c-1.19-2.18-2.8-3.89-4.83-5.14Z"/>
    <path class="cls-8" d="m1183.44,729.74H12c-6.6,0-12,5.4-12,12v181.57c0,6.6,5.4,12,12,12h1171.44c6.6,0,12-5.4,12-12v-181.57c0-6.6-5.4-12-12-12ZM109.66,794.99h-33.09v19.52h30.6v19.15h-30.6v38.96h-21.32v-96.86h54.42v19.22Zm84.94,40.28c0,7.97-1.52,14.88-4.56,20.73-3.04,5.85-7.39,10.37-13.05,13.57-5.66,3.2-12.41,4.81-20.25,4.81s-14.69-1.6-20.4-4.81c-5.71-3.2-10.07-7.73-13.09-13.57-3.02-5.84-4.53-12.75-4.53-20.73v-59.51h21.25v58.33c0,4.4.68,8.12,2.03,11.15,1.36,3.03,3.29,5.32,5.81,6.86,2.52,1.54,5.49,2.31,8.91,2.31s6.3-.77,8.77-2.31c2.47-1.54,4.39-3.83,5.74-6.86,1.36-3.03,2.03-6.75,2.03-11.15v-58.33h21.32v59.51Zm97.78,37.35h-29.24l-36.44-73.58v73.58h-21.32v-96.86h29.1l36.59,73.17v-73.17h21.32v96.86Zm80.09-23.41c-3.28,7.29-8.21,13.01-14.8,17.17-6.59,4.16-14.89,6.24-24.93,6.24h-28.31v-96.86h28.31c10.03,0,18.34,2.07,24.93,6.2,6.59,4.13,11.52,9.85,14.8,17.13,3.28,7.29,4.92,15.63,4.92,25.02s-1.64,17.81-4.92,25.09Zm73.24-54.23h-38.87v19.74h38.51v18.64h-38.51v20.03h38.87v19.22h-60.12v-96.86h60.12v19.22Zm80.09,54.23c-3.28,7.29-8.21,13.01-14.8,17.17-6.59,4.16-14.89,6.24-24.93,6.24h-28.31v-96.86h28.31c10.03,0,18.34,2.07,24.93,6.2,6.58,4.13,11.52,9.85,14.8,17.13,3.28,7.29,4.92,15.63,4.92,25.02s-1.64,17.81-4.92,25.09Zm63.51,23.41h-24.22v-34.85l-36.86-62h29.41l19.53,36.91,19.61-36.91h29.25l-36.7,62v34.85Zm85.25-13.54c-2.81,4.77-6.71,8.51-11.69,11.23-4.99,2.71-10.75,4.07-17.29,4.07s-12.34-1.36-17.4-4.07c-5.06-2.71-9.03-6.46-11.91-11.23-2.88-4.77-4.32-10.24-4.32-16.4s1.44-11.65,4.32-16.47c2.88-4.82,6.85-8.62,11.91-11.41,5.06-2.79,10.86-4.18,17.4-4.18s12.3,1.39,17.29,4.18c4.99,2.79,8.88,6.59,11.69,11.41,2.81,4.82,4.21,10.31,4.21,16.47s-1.4,11.63-4.21,16.4Zm78.22-16.47c0,6.46-1.32,12.07-3.96,16.84-2.64,4.77-6.45,8.45-11.44,11.04-4.99,2.59-11.04,3.89-18.16,3.89s-13.1-1.3-18.09-3.89c-4.99-2.59-8.79-6.27-11.4-11.04s-3.92-10.38-3.92-16.84v-30.23h21.72v27.88c0,4.8.9,8.62,2.69,11.48,1.79,2.86,4.79,4.29,9.01,4.29s7.35-1.43,9.11-4.29c1.77-2.86,2.65-6.69,2.65-11.48v-27.88h21.79v30.23Zm51.24,28.69c-1.77.78-4.01,1.49-6.72,2.13-2.71.63-5.74.95-9.08.95-5.96,0-10.87-1.7-14.74-5.1-3.87-3.4-5.81-8.65-5.81-15.74v-22.82h-10.17v-18.34h10.17v-24.73h21.86v24.73h13.36v18.34h-13.36v16.8c0,2.49.36,4.51,1.09,6.05.73,1.54,2.06,2.31,3.99,2.31,1.31,0,2.42-.29,3.34-.88.92-.59,1.48-.98,1.67-1.17l7.55,15.85c-.34.29-1.39.83-3.16,1.61Zm75.14,1.32h-22.08v-33.09c0-4.3-.96-7.54-2.87-9.72-1.91-2.18-4.52-3.27-7.81-3.27-2.18,0-4.26.58-6.25,1.72-1.99,1.15-3.6,2.76-4.83,4.84-1.23,2.08-1.85,4.46-1.85,7.15v32.36h-22.15v-100.96h22.15v49.6c.53-1.61,1.73-3.24,3.6-4.88,1.86-1.64,4.21-3.01,7.05-4.11,2.83-1.1,5.89-1.65,9.19-1.65,4.16,0,8.23.86,12.2,2.57,3.97,1.71,7.24,4.42,9.8,8.11,2.57,3.69,3.85,8.55,3.85,14.56v36.76Zm34.98-2.16c-2.57,2.62-5.69,3.93-9.37,3.93s-6.67-1.31-9.26-3.93c-2.59-2.62-3.89-5.74-3.89-9.36s1.29-6.88,3.89-9.5c2.59-2.62,5.68-3.93,9.26-3.93s6.8,1.31,9.37,3.93c2.57,2.62,3.85,5.78,3.85,9.5s-1.28,6.74-3.85,9.36Zm77.48-11.37c-2.81,4.77-6.71,8.51-11.69,11.23-4.99,2.71-10.75,4.07-17.29,4.07s-12.34-1.36-17.4-4.07c-5.06-2.71-9.03-6.46-11.91-11.23-2.88-4.77-4.32-10.24-4.32-16.4s1.44-11.65,4.32-16.47c2.88-4.82,6.85-8.62,11.91-11.41,5.06-2.79,10.86-4.18,17.4-4.18s12.3,1.39,17.29,4.18c4.99,2.79,8.88,6.59,11.69,11.41,2.81,4.82,4.21,10.31,4.21,16.47s-1.4,11.63-4.21,16.4Zm57.31-26.6c-.68-.83-1.88-1.7-3.6-2.6-1.72-.9-3.86-1.36-6.43-1.36-2.95,0-5.39.76-7.3,2.27-1.91,1.52-3.32,3.35-4.21,5.5-.9,2.15-1.34,4.18-1.34,6.09v30.23h-22.08v-60.24h22.08v8.49c.5-.97,1.31-2.13,2.47-3.46,1.5-1.74,3.61-3.3,6.32-4.7,2.71-1.39,6.03-2.09,9.95-2.09,2.76,0,5.3.43,7.63,1.28,2.32.86,4.02,1.68,5.08,2.46l-8.57,18.12Zm81.06,39.04v2.79c0,6.65-1.63,12.25-4.9,16.8-3.27,4.55-7.66,7.97-13.18,10.27-5.52,2.3-11.72,3.45-18.59,3.45-4.16,0-8.29-.37-12.38-1.1-4.09-.73-7.91-1.98-11.44-3.74-3.53-1.76-6.51-4.18-8.93-7.26l12.93-13.57c1.11,1.32,2.48,2.62,4.1,3.89,1.62,1.27,3.63,2.32,6.03,3.15,2.4.83,5.31,1.25,8.75,1.25,3.2,0,5.98-.56,8.35-1.69,2.37-1.13,4.22-2.76,5.56-4.92,1.33-2.15,2-4.77,2-7.85v-10.13c-.44.98-1.54,2.4-3.3,4.26-1.77,1.86-4.1,3.53-7.01,5.03-2.9,1.49-6.29,2.24-10.17,2.24-5.81,0-10.9-1.43-15.25-4.29-4.36-2.86-7.75-6.7-10.17-11.52-2.42-4.82-3.63-10.16-3.63-16.03s1.21-11.21,3.63-16.03c2.42-4.82,5.81-8.67,10.17-11.56,4.36-2.89,9.44-4.33,15.25-4.33,3.73,0,7,.6,9.8,1.8,2.81,1.2,5.08,2.62,6.83,4.26,1.74,1.64,2.95,3.14,3.63,4.51v-8.81h21.93v59.14Z"/>
  </g>
</svg>