<?xml version="1.0" encoding="UTF-8" standalone="no"?>
<!DOCTYPE svg PUBLIC "-//W3C//DTD SVG 1.1//EN" "http://www.w3.org/Graphics/SVG/1.1/DTD/svg11.dtd">
<svg width="100%" height="100%" viewBox="0 0 934 934" version="1.1" xmlns="http://www.w3.org/2000/svg" xmlns:xlink="http://www.w3.org/1999/xlink" xml:space="preserve" xmlns:serif="http://www.serif.com/" style="fill-rule:evenodd;clip-rule:evenodd;stroke-linejoin:round;stroke-miterlimit:2;">
    <path d="M466.65,0C724.38,0 933.3,208.93 933.3,466.65C933.3,724.37 724.37,933.3 466.65,933.3C208.93,933.3 0,724.37 0,466.65C0,208.93 208.93,0 466.65,0ZM580.83,757.757C598.443,745.211 619.452,729.402 627.28,720.15C641.73,703.07 677.21,668.91 696.92,629.49C716.63,590.07 739.63,554.59 750.14,548.68C750.14,548.68 779.05,595.99 727.15,719.5C727.15,719.5 775.77,680.08 797.45,582.19C819.13,484.3 807.96,406.12 797.45,331.22C797.45,331.22 830.96,343.7 846.07,433.05C861.18,522.4 851.98,590.07 851.98,590.07C851.98,590.07 868.41,511.89 861.18,433.05C853.95,354.21 838.84,315.45 823.07,280.63C823.07,280.63 865.12,274.72 878.26,322.68C878.26,322.68 882.64,317.86 888.9,318.24C827.69,144.07 661.74,19.2 466.65,19.2C271.56,19.2 105.63,144.05 44.39,318.23C50.3,318.21 54.38,322.69 54.38,322.69C67.52,274.73 109.57,280.64 109.57,280.64C93.8,315.46 78.68,354.22 71.46,433.06C64.24,511.9 80.66,590.08 80.66,590.08C80.66,590.08 71.46,522.41 86.57,433.06C101.68,343.71 135.19,331.23 135.19,331.23C124.68,406.13 113.51,484.31 135.19,582.2C156.87,680.09 205.49,719.51 205.49,719.51C153.59,595.99 182.5,548.69 182.5,548.69C193.02,554.6 216.01,590.09 235.72,629.5C255.43,668.91 290.91,703.08 305.36,720.16C319.81,737.24 379.18,776.66 379.18,776.66L379.18,776.65C379.18,776.65 384.968,778.314 395.18,780.321C394.629,749.322 389.028,703.955 367.92,650.04C357.41,625.08 334.62,598.8 316.89,583.47C299.16,568.14 240.9,499.37 217.69,463.02C194.47,426.66 175.2,385.06 170.82,362.28C166.44,339.51 159,304.47 182.21,299.65C205.42,294.83 212.87,308.41 217.25,314.54C221.63,320.67 235.21,365.35 278.13,427.54C286.02,439.37 313.17,466.08 346.02,486.67C378.87,507.26 401.21,518.65 413.91,526.53C426.62,534.41 441.87,548.86 457.46,555C473.05,561.14 492.32,555.44 500.64,549.31C508.96,543.17 517.28,536.17 519.91,533.1C522.54,530.03 524.84,526.94 516.96,519.06C509.08,511.17 496.81,508.11 490.68,505.48C484.55,502.85 477.98,499.57 472.94,495.08C467.9,490.59 464.4,487.42 455.42,484.24C446.44,481.07 427.72,477.34 409.87,469.35C404.72,466.62 394.87,460.7 392.13,463.88C389.39,467.05 389.94,470.23 398.81,474.06C407.68,477.89 411.74,479.64 415.02,481.72C418.3,483.8 430.13,488.18 434.4,489.17C438.67,490.16 446.56,492.46 452.25,494.43C457.94,496.4 460.46,496.94 464.29,500.12C468.12,503.29 481.7,513.15 483.89,514.68C486.08,516.22 488.26,517.31 483.67,517.75C479.08,518.19 473.93,518.63 471.63,520.6C469.33,522.57 467.14,524.87 472.51,527.17C477.87,529.47 478.97,529.81 480.61,530.02C482.25,530.23 486.96,530.89 489.48,531.22C492,531.54 496.49,533.18 497.04,534.5C497.59,535.82 497.59,536.89 495.62,536.79C493.65,536.69 492.44,536.01 490.91,536.79C489.37,537.57 487.18,538.33 483.68,537.24C480.18,536.14 475.48,534.17 473.83,534.28C472.18,534.39 470.1,533.51 466.27,531.76C462.44,530.01 436.49,520.15 425.32,514.02C414.15,507.89 402.54,499.68 399.04,496.61C395.54,493.55 369.95,475.26 360.46,466.5C350.97,457.74 319.87,418.61 312.28,406.35C304.69,394.09 291.7,366.06 287.9,352.04C284.1,338.02 281.04,322.69 291.55,293.93C302.06,265.17 306.59,257 311.7,246.63C315.927,238.048 321.049,226.877 323.6,219.143C327.417,201.301 336.244,183.089 341.98,174.85C347.56,166.83 359.02,151.17 369.68,142.99C380.34,134.81 403.85,121.82 427.06,119.48C442.86,117.89 462.51,117.05 485.19,119.25C485.198,119.254 485.206,119.259 485.214,119.263C495.854,120.294 507.153,121.993 519.04,124.6C556.27,132.77 579.77,162.41 587.51,173.07C595.25,183.72 616.56,223 620.36,246.21C620.66,249.13 610.14,239.06 605.18,235.41C600.21,231.76 592.77,226.22 591.16,225.34C589.56,224.47 589.11,225.93 589.41,228.41C589.71,230.89 591.32,239.8 591.02,242.57C590.72,245.34 589.24,245.59 588.68,244.03C588.68,244.03 586.05,235.43 577.01,223.36C577.01,223.36 577.008,223.349 577.004,223.327L523.09,180.06C468.78,152.03 421.91,171.3 408.77,177.87C395.63,184.44 366.29,198.89 339.57,247.51C312.85,296.13 308.91,333.36 330.37,372.78C351.83,412.2 361.46,419.64 382.05,435.85C402.63,452.06 415.77,456.87 445.12,464.32C474.46,471.76 494.61,472.64 527.46,461.25C560.31,449.86 602.35,394.12 615.93,376.66C629.51,359.2 632.14,339.05 638.27,339.49C644.4,339.93 657.98,347.81 655.79,359.2C653.6,370.59 645.28,391.61 606.3,427.09C567.32,462.57 564.69,455.56 552.43,467.39C540.16,479.21 552.86,477.46 558.12,475.27C563.37,473.08 608.05,446.68 660.17,376.66C660.17,376.66 675.5,364.01 690.39,308.39C705.28,252.77 704.84,234.81 734.19,236.56C735.377,236.631 736.508,236.771 737.586,236.975C763.526,241.514 759.05,282.3 759.05,282.3C759.05,282.3 757.3,319.84 745.91,364.52C739.18,390.95 730.13,415.23 720.88,437.28C720.876,437.265 720.872,437.25 720.869,437.235C714.489,452.453 708.008,466.61 702.11,479.66C688.94,508.8 669.21,552.85 652.89,580.99L652.88,580.99C652.88,580.982 652.883,580.788 652.889,580.423C651.19,583.366 649.526,586.14 647.91,588.71C631.59,614.66 591.65,675.52 584.09,700.32C583.81,701.28 583.59,702.19 583.42,703.04C580.703,716.916 579.471,733.491 580.83,757.757ZM594.89,293.95L594.88,293.95C597.22,322.86 589.33,340.67 579.99,357.9C570.64,375.12 549.91,378.33 546.99,376C544.07,373.67 551.37,369.58 558.67,352.06C565.97,334.54 569.77,321.98 570.35,311.47C570.93,300.96 571.22,279.35 554.58,252.49C537.93,225.63 515.16,213.37 490.63,209.57C466.11,205.77 441.87,211.32 429.9,214.24C417.93,217.16 404.2,219.21 406.83,226.8C408.04,230.29 411.29,231.8 414.56,232.42C434.07,224.4 453.55,223.28 453.55,223.28C487.13,218.91 509.03,230.3 509.03,230.3C545.83,248.69 552.25,290.45 547.65,323.5C543.05,356.56 524.65,395.57 499.03,404.77C473.4,413.96 445.81,424.48 412.96,399.51C380.11,374.55 374.86,348.92 370.26,329.87C365.66,310.81 369.86,277.33 382.74,256.94C383.62,255.55 384.56,254.23 385.56,252.95C385.56,252.95 392.82,236.72 391.65,233.8C390.48,230.88 389.02,228.84 394.57,222.28C400.12,215.72 415.3,205.18 429.32,198.76C443.34,192.34 459.4,188.25 468.45,187.96C477.5,187.66 486.26,187.08 511.96,195.84C537.66,204.6 559.56,223.28 568.9,234.38C578.25,245.48 592.55,265.04 594.89,293.95ZM403.31,494.24C402.88,498.62 412.95,501.24 416.6,502.85C420.25,504.45 430.91,507.37 438.21,511.17C445.51,514.96 457.92,516.42 460.4,516.57C462.88,516.72 467.55,513.51 466.53,508.69C465.51,503.88 459.67,502.7 455,503C450.33,503.3 444.78,501.69 444.78,501.69C442.19,501.08 435.72,497.75 432.95,497.02C430.18,496.29 424.92,494.68 421.27,492.49C417.62,490.3 411.49,488.26 409.15,488.11C406.81,487.96 403.75,489.86 403.31,494.24Z" style="fill:white;"/>
</svg>
